<svg id="Capa_1" enable-background="new 0 0 502 502" height="512" viewBox="0 0 502 502" width="512" xmlns="http://www.w3.org/2000/svg" xmlns:xlink="http://www.w3.org/1999/xlink"><linearGradient id="lg1"><stop offset="0" stop-color="#4f4c5f"/><stop offset="1" stop-color="#77718a"/></linearGradient><linearGradient id="SVGID_1_" gradientUnits="userSpaceOnUse" x1="382.175" x2="502" xlink:href="#lg1" y1="342.271" y2="342.271"/><linearGradient id="SVGID_2_" gradientUnits="userSpaceOnUse" x1="228.155" x2="228.155" y1="487.13" y2="264.227"><stop offset="0" stop-color="#eb9981"/><stop offset="1" stop-color="#dc543c"/></linearGradient><linearGradient id="SVGID_3_" gradientUnits="userSpaceOnUse" x1="299.316" x2="456.309" y1="146.678" y2="146.678"><stop offset="0" stop-color="#77718a"/><stop offset="1" stop-color="#4f4c5f"/></linearGradient><linearGradient id="SVGID_4_" gradientUnits="userSpaceOnUse" x1="0" x2="156.993" xlink:href="#lg1" y1="146.678" y2="146.678"/><linearGradient id="SVGID_5_" gradientUnits="userSpaceOnUse" x1="228.155" x2="228.155" y1="317.401" y2="50.679"><stop offset="0" stop-color="#fff5e3"/><stop offset="1" stop-color="#fbe7b4"/></linearGradient><linearGradient id="SVGID_6_" gradientUnits="userSpaceOnUse" x1="228.155" x2="228.155" y1="204.202" y2="14.87"><stop offset="0" stop-color="#dc543c"/><stop offset="1" stop-color="#eb9981"/></linearGradient><g><path d="m384.976 324.79c7.858-1.14 16.901-3.247 26.517-6.992 32.54-12.723 47.819-33.633 51.954-37.295 8.533-8.94 22.698-9.271 31.639-.737 7.208 6.88 8.8 17.447 4.682 25.958-2.597 4.342-14.827 38.083-51.842 69.079-23.704 19.815-49.234 30.674-65.751 36.164z" fill="url(#SVGID_1_)"/><path d="m426.729 358.912c-.085-9.226-7.627-16.641-16.854-16.641-8.018 0-14.926 5.649-16.518 13.507l-11.182 55.189c10.914-3.627 25.768-9.621 41.425-18.972 2.603-12.662 3.21-24.268 3.129-33.083z" fill="#4a4a5a"/><path d="m396.657 347.693-8.677-83.466h-319.651l-8.677 83.466c-6.413 61.736 32.571 116.83 88.724 133.958l4.55-5.104 13.49 9.169c6.169.924 12.487 1.414 18.931 1.414h35.446l7.362-6.269 7.362 6.269h35.446c6.444 0 12.762-.49 18.931-1.414l12.171-8.861 5.868 4.796c56.153-17.128 95.137-72.222 88.724-133.958z" fill="url(#SVGID_2_)"/><path d="m299.316 33.017c9.539-2.752 19.671-4.117 30.164-3.861 43.195 1.056 79.515 29.818 91.873 69.19 4.981 15.87 12.249 30.917 21.576 44.69 8.675 12.81 13.646 28.33 13.369 45.03-.646 39.006-30.374 71.368-68.315 76.163z" fill="url(#SVGID_3_)"/><path d="m156.993 33.017c-9.539-2.752-19.671-4.117-30.164-3.861-43.195 1.056-79.515 29.818-91.873 69.19-4.981 15.87-12.249 30.917-21.576 44.69-8.675 12.81-13.646 28.33-13.369 45.03.646 39.006 30.374 71.368 68.315 76.163z" fill="url(#SVGID_4_)"/><path d="m126.829 29.157c-6.122.15-12.098.874-17.895 2.088-13.93 12.566-25.647 27.101-34.865 43.032-6.79 11.735-2.102 26.771 10.149 32.578 3.613 1.713 7.608 2.462 11.596 2.176l32.936-2.363 28.244-73.651c-9.539-2.752-19.672-4.117-30.165-3.86z" fill="#4a4a5a"/><path d="m387.98 264.227s-27.878 25.09-90.445 31.608c-16.167 1.688-31.922 6.567-45.92 14.832-6.272 3.701-14.224 6.734-23.46 6.734s-17.188-3.033-23.46-6.734c-13.998-8.265-29.753-13.144-45.92-14.832-62.568-6.518-90.445-31.608-90.445-31.608l6.243-60.025 88.345-133.351 65.238-20.172 59.23 20.172 94.352 133.351z" fill="url(#SVGID_5_)"/><path d="m381.737 204.202c-65.404-10.12-104.629-71.009-121.062-103.167-6.233-12.201-18.808-19.858-32.521-19.858-6.852 0-13.428 1.914-19.063 5.35-5.634 3.445-10.346 8.403-13.458 14.508-16.432 32.157-55.657 93.047-121.062 103.167l5.831-56.138c3.926-37.841 21.851-71.147 48.285-94.98 26.444-23.843 61.419-38.214 99.466-38.214 76.094 0 139.889 57.503 147.751 133.194z" fill="url(#SVGID_6_)"/><g><g><ellipse cx="123.153" cy="187.625" fill="#ffaecf" rx="17.845" ry="14.341"/><ellipse cx="333.157" cy="187.625" fill="#ffaecf" rx="17.845" ry="14.341"/><circle cx="153.747" cy="152.239" fill="#fff" r="35.386"/><circle cx="302.563" cy="152.239" fill="#fff" r="35.386"/><g fill="#383842"><g><circle cx="153.747" cy="152.239" r="21.09"/><circle cx="302.563" cy="152.239" r="21.09"/></g><path d="m239.9 197.925c-4.148 0-8.195-1.359-11.746-3.893-3.55 2.533-7.598 3.893-11.746 3.893-5.657 0-11.127-2.527-15.403-7.115-1.883-2.021-1.771-5.184.249-7.066 2.02-1.884 5.184-1.772 7.067.248 2.398 2.573 5.195 3.934 8.088 3.934s5.69-1.36 8.088-3.934c.946-1.015 2.271-1.591 3.658-1.591s2.712.576 3.658 1.591c2.398 2.573 5.195 3.934 8.088 3.934s5.689-1.36 8.087-3.934c1.884-2.021 5.047-2.131 7.067-.248s2.131 5.046.249 7.066c-4.277 4.587-9.747 7.115-15.404 7.115z"/></g></g><path d="m247.546 158.922c0 6.245-8.682 11.307-19.391 11.307s-19.391-5.062-19.391-11.307 8.682-6.987 19.391-6.987 19.391.743 19.391 6.987z" fill="#383842"/></g><g fill="#dc543c"><path d="m228.155 377.602c-4.066 0-7.362 3.296-7.362 7.362v102.166h14.724v-102.166c0-4.066-3.296-7.362-7.362-7.362z"/><path d="m140.998 377.602c-4.066 0-7.362 3.296-7.362 7.362v23.56c0 25.191 5.057 50.05 14.74 73.127 5.837 1.78 11.863 3.14 18.04 4.065-11.833-23.947-18.056-50.365-18.056-77.192v-23.56c0-4.066-3.296-7.362-7.362-7.362z"/><path d="m315.311 377.602c4.066 0 7.362 3.296 7.362 7.362v23.56c0 25.191-5.057 50.05-14.74 73.127-5.837 1.78-11.863 3.14-18.04 4.065 11.833-23.947 18.056-50.365 18.056-77.192v-23.56c0-4.066 3.296-7.362 7.362-7.362z"/></g></g></svg>